ISO-10303-21;
HEADER;
/* Generated by software containing ST-Developer
 * from STEP Tools, Inc. (www.steptools.com) 
 */

FILE_DESCRIPTION(
/* description */ ('Tuning fork'),
/* implementation_level */ '2;1');

FILE_NAME(
/* name */ 'NT_NCS_005_P_01.stp',
/* time_stamp */ '2026-05-18T13:40:19+02:00',
/* author */ ('faricci'),
/* organization */ (''),
/* preprocessor_version */ 'ST-DEVELOPER v20.1',
/* originating_system */ 'Autodesk Inventor 2026',
/* authorisation */ '');

FILE_SCHEMA (('AUTOMOTIVE_DESIGN { 1 0 10303 214 3 1 1 }'));
ENDSEC;

DATA;
#10=MECHANICAL_DESIGN_GEOMETRIC_PRESENTATION_REPRESENTATION('',(#13),#772);
#11=SHAPE_REPRESENTATION_RELATIONSHIP('SRR','None',#779,#12);
#12=ADVANCED_BREP_SHAPE_REPRESENTATION('',(#14),#771);
#13=STYLED_ITEM('',(#789),#14);
#14=MANIFOLD_SOLID_BREP('Solid1',#462);
#15=FACE_BOUND('',#70,.T.);
#16=FACE_BOUND('',#83,.T.);
#17=FACE_BOUND('',#84,.T.);
#18=FACE_BOUND('',#87,.T.);
#19=FACE_BOUND('',#88,.T.);
#20=PLANE('',#500);
#21=PLANE('',#501);
#22=PLANE('',#502);
#23=PLANE('',#503);
#24=PLANE('',#504);
#25=PLANE('',#505);
#26=PLANE('',#506);
#27=PLANE('',#507);
#28=PLANE('',#508);
#29=PLANE('',#509);
#30=PLANE('',#510);
#31=PLANE('',#511);
#32=PLANE('',#512);
#33=PLANE('',#513);
#34=PLANE('',#514);
#35=PLANE('',#515);
#36=PLANE('',#516);
#37=PLANE('',#517);
#38=PLANE('',#518);
#39=CONICAL_SURFACE('',#491,0.518933683945348,1.02974425867665);
#40=FACE_OUTER_BOUND('',#64,.T.);
#41=FACE_OUTER_BOUND('',#65,.T.);
#42=FACE_OUTER_BOUND('',#66,.T.);
#43=FACE_OUTER_BOUND('',#67,.T.);
#44=FACE_OUTER_BOUND('',#68,.T.);
#45=FACE_OUTER_BOUND('',#69,.T.);
#46=FACE_OUTER_BOUND('',#71,.T.);
#47=FACE_OUTER_BOUND('',#72,.T.);
#48=FACE_OUTER_BOUND('',#73,.T.);
#49=FACE_OUTER_BOUND('',#74,.T.);
#50=FACE_OUTER_BOUND('',#75,.T.);
#51=FACE_OUTER_BOUND('',#76,.T.);
#52=FACE_OUTER_BOUND('',#77,.T.);
#53=FACE_OUTER_BOUND('',#78,.T.);
#54=FACE_OUTER_BOUND('',#79,.T.);
#55=FACE_OUTER_BOUND('',#80,.T.);
#56=FACE_OUTER_BOUND('',#81,.T.);
#57=FACE_OUTER_BOUND('',#82,.T.);
#58=FACE_OUTER_BOUND('',#85,.T.);
#59=FACE_OUTER_BOUND('',#86,.T.);
#60=FACE_OUTER_BOUND('',#89,.T.);
#61=FACE_OUTER_BOUND('',#90,.T.);
#62=FACE_OUTER_BOUND('',#91,.T.);
#63=FACE_OUTER_BOUND('',#92,.T.);
#64=EDGE_LOOP('',(#310,#311,#312,#313));
#65=EDGE_LOOP('',(#314,#315,#316,#317));
#66=EDGE_LOOP('',(#318,#319,#320));
#67=EDGE_LOOP('',(#321,#322,#323,#324));
#68=EDGE_LOOP('',(#325,#326,#327,#328,#329,#330,#331,#332));
#69=EDGE_LOOP('',(#333,#334,#335,#336,#337,#338));
#70=EDGE_LOOP('',(#339));
#71=EDGE_LOOP('',(#340,#341,#342,#343,#344,#345));
#72=EDGE_LOOP('',(#346,#347,#348,#349));
#73=EDGE_LOOP('',(#350,#351,#352,#353));
#74=EDGE_LOOP('',(#354,#355,#356,#357));
#75=EDGE_LOOP('',(#358,#359,#360,#361));
#76=EDGE_LOOP('',(#362,#363,#364,#365));
#77=EDGE_LOOP('',(#366,#367,#368,#369));
#78=EDGE_LOOP('',(#370,#371,#372,#373,#374));
#79=EDGE_LOOP('',(#375,#376,#377,#378));
#80=EDGE_LOOP('',(#379,#380,#381,#382));
#81=EDGE_LOOP('',(#383,#384,#385,#386));
#82=EDGE_LOOP('',(#387,#388,#389,#390,#391));
#83=EDGE_LOOP('',(#392));
#84=EDGE_LOOP('',(#393));
#85=EDGE_LOOP('',(#394,#395,#396,#397));
#86=EDGE_LOOP('',(#398,#399,#400,#401,#402,#403,#404,#405));
#87=EDGE_LOOP('',(#406));
#88=EDGE_LOOP('',(#407));
#89=EDGE_LOOP('',(#408,#409,#410,#411,#412,#413));
#90=EDGE_LOOP('',(#414,#415,#416,#417,#418,#419));
#91=EDGE_LOOP('',(#420,#421,#422,#423,#424,#425,#426,#427));
#92=EDGE_LOOP('',(#428,#429,#430,#431,#432,#433));
#93=LINE('',#646,#145);
#94=LINE('',#652,#146);
#95=LINE('',#658,#147);
#96=LINE('',#662,#148);
#97=LINE('',#666,#149);
#98=LINE('',#670,#150);
#99=LINE('',#674,#151);
#100=LINE('',#678,#152);
#101=LINE('',#682,#153);
#102=LINE('',#684,#154);
#103=LINE('',#686,#155);
#104=LINE('',#688,#156);
#105=LINE('',#689,#157);
#106=LINE('',#692,#158);
#107=LINE('',#694,#159);
#108=LINE('',#696,#160);
#109=LINE('',#698,#161);
#110=LINE('',#699,#162);
#111=LINE('',#702,#163);
#112=LINE('',#703,#164);
#113=LINE('',#706,#165);
#114=LINE('',#707,#166);
#115=LINE('',#709,#167);
#116=LINE('',#712,#168);
#117=LINE('',#713,#169);
#118=LINE('',#717,#170);
#119=LINE('',#719,#171);
#120=LINE('',#721,#172);
#121=LINE('',#722,#173);
#122=LINE('',#725,#174);
#123=LINE('',#727,#175);
#124=LINE('',#728,#176);
#125=LINE('',#731,#177);
#126=LINE('',#733,#178);
#127=LINE('',#734,#179);
#128=LINE('',#737,#180);
#129=LINE('',#738,#181);
#130=LINE('',#742,#182);
#131=LINE('',#744,#183);
#132=LINE('',#746,#184);
#133=LINE('',#747,#185);
#134=LINE('',#749,#186);
#135=LINE('',#750,#187);
#136=LINE('',#753,#188);
#137=LINE('',#754,#189);
#138=LINE('',#757,#190);
#139=LINE('',#758,#191);
#140=LINE('',#760,#192);
#141=LINE('',#762,#193);
#142=LINE('',#763,#194);
#143=LINE('',#765,#195);
#144=LINE('',#767,#196);
#145=VECTOR('',#525,1.038);
#146=VECTOR('',#532,1.038);
#147=VECTOR('',#539,0.519);
#148=VECTOR('',#544,1.038);
#149=VECTOR('',#547,10.);
#150=VECTOR('',#550,10.);
#151=VECTOR('',#553,10.);
#152=VECTOR('',#556,10.);
#153=VECTOR('',#561,10.);
#154=VECTOR('',#562,10.);
#155=VECTOR('',#563,10.);
#156=VECTOR('',#564,10.);
#157=VECTOR('',#565,10.);
#158=VECTOR('',#568,10.);
#159=VECTOR('',#569,10.);
#160=VECTOR('',#570,10.);
#161=VECTOR('',#571,10.);
#162=VECTOR('',#572,10.);
#163=VECTOR('',#575,10.);
#164=VECTOR('',#576,10.);
#165=VECTOR('',#579,10.);
#166=VECTOR('',#580,10.);
#167=VECTOR('',#583,10.);
#168=VECTOR('',#586,10.);
#169=VECTOR('',#587,10.);
#170=VECTOR('',#590,10.);
#171=VECTOR('',#591,10.);
#172=VECTOR('',#592,10.);
#173=VECTOR('',#593,10.);
#174=VECTOR('',#596,10.);
#175=VECTOR('',#597,10.);
#176=VECTOR('',#598,10.);
#177=VECTOR('',#601,10.);
#178=VECTOR('',#602,10.);
#179=VECTOR('',#603,10.);
#180=VECTOR('',#606,10.);
#181=VECTOR('',#607,10.);
#182=VECTOR('',#610,10.);
#183=VECTOR('',#611,10.);
#184=VECTOR('',#612,10.);
#185=VECTOR('',#613,10.);
#186=VECTOR('',#616,10.);
#187=VECTOR('',#617,10.);
#188=VECTOR('',#620,10.);
#189=VECTOR('',#621,10.);
#190=VECTOR('',#624,10.);
#191=VECTOR('',#625,10.);
#192=VECTOR('',#628,10.);
#193=VECTOR('',#631,10.);
#194=VECTOR('',#632,10.);
#195=VECTOR('',#635,10.);
#196=VECTOR('',#638,10.);
#197=CIRCLE('',#486,1.03775);
#198=CIRCLE('',#487,1.03775);
#199=CIRCLE('',#489,1.03775);
#200=CIRCLE('',#490,1.03775);
#201=CIRCLE('',#492,1.03775);
#202=CIRCLE('',#494,1.03775);
#203=CIRCLE('',#496,3.);
#204=CIRCLE('',#497,3.);
#205=CIRCLE('',#498,3.);
#206=CIRCLE('',#499,3.);
#207=VERTEX_POINT('',#643);
#208=VERTEX_POINT('',#645);
#209=VERTEX_POINT('',#649);
#210=VERTEX_POINT('',#651);
#211=VERTEX_POINT('',#655);
#212=VERTEX_POINT('',#657);
#213=VERTEX_POINT('',#660);
#214=VERTEX_POINT('',#664);
#215=VERTEX_POINT('',#665);
#216=VERTEX_POINT('',#667);
#217=VERTEX_POINT('',#669);
#218=VERTEX_POINT('',#671);
#219=VERTEX_POINT('',#673);
#220=VERTEX_POINT('',#675);
#221=VERTEX_POINT('',#677);
#222=VERTEX_POINT('',#681);
#223=VERTEX_POINT('',#683);
#224=VERTEX_POINT('',#685);
#225=VERTEX_POINT('',#687);
#226=VERTEX_POINT('',#691);
#227=VERTEX_POINT('',#693);
#228=VERTEX_POINT('',#695);
#229=VERTEX_POINT('',#697);
#230=VERTEX_POINT('',#701);
#231=VERTEX_POINT('',#705);
#232=VERTEX_POINT('',#711);
#233=VERTEX_POINT('',#715);
#234=VERTEX_POINT('',#716);
#235=VERTEX_POINT('',#718);
#236=VERTEX_POINT('',#720);
#237=VERTEX_POINT('',#724);
#238=VERTEX_POINT('',#726);
#239=VERTEX_POINT('',#730);
#240=VERTEX_POINT('',#732);
#241=VERTEX_POINT('',#736);
#242=VERTEX_POINT('',#740);
#243=VERTEX_POINT('',#741);
#244=VERTEX_POINT('',#743);
#245=VERTEX_POINT('',#745);
#246=VERTEX_POINT('',#752);
#247=VERTEX_POINT('',#756);
#248=EDGE_CURVE('',#207,#207,#197,.T.);
#249=EDGE_CURVE('',#207,#208,#93,.T.);
#250=EDGE_CURVE('',#208,#208,#198,.T.);
#251=EDGE_CURVE('',#209,#209,#199,.T.);
#252=EDGE_CURVE('',#209,#210,#94,.T.);
#253=EDGE_CURVE('',#210,#210,#200,.T.);
#254=EDGE_CURVE('',#211,#211,#201,.T.);
#255=EDGE_CURVE('',#211,#212,#95,.T.);
#256=EDGE_CURVE('',#213,#213,#202,.T.);
#257=EDGE_CURVE('',#213,#211,#96,.T.);
#258=EDGE_CURVE('',#214,#215,#97,.T.);
#259=EDGE_CURVE('',#216,#214,#203,.T.);
#260=EDGE_CURVE('',#217,#216,#98,.T.);
#261=EDGE_CURVE('',#218,#217,#204,.T.);
#262=EDGE_CURVE('',#219,#218,#99,.T.);
#263=EDGE_CURVE('',#220,#219,#205,.T.);
#264=EDGE_CURVE('',#221,#220,#100,.T.);
#265=EDGE_CURVE('',#215,#221,#206,.T.);
#266=EDGE_CURVE('',#222,#221,#101,.T.);
#267=EDGE_CURVE('',#223,#222,#102,.T.);
#268=EDGE_CURVE('',#224,#223,#103,.T.);
#269=EDGE_CURVE('',#224,#225,#104,.T.);
#270=EDGE_CURVE('',#215,#225,#105,.T.);
#271=EDGE_CURVE('',#218,#226,#106,.T.);
#272=EDGE_CURVE('',#226,#227,#107,.T.);
#273=EDGE_CURVE('',#227,#228,#108,.T.);
#274=EDGE_CURVE('',#228,#229,#109,.T.);
#275=EDGE_CURVE('',#229,#219,#110,.T.);
#276=EDGE_CURVE('',#220,#230,#111,.T.);
#277=EDGE_CURVE('',#230,#222,#112,.T.);
#278=EDGE_CURVE('',#225,#231,#113,.T.);
#279=EDGE_CURVE('',#231,#214,#114,.T.);
#280=EDGE_CURVE('',#229,#230,#115,.T.);
#281=EDGE_CURVE('',#232,#231,#116,.T.);
#282=EDGE_CURVE('',#216,#232,#117,.T.);
#283=EDGE_CURVE('',#233,#234,#118,.T.);
#284=EDGE_CURVE('',#235,#234,#119,.T.);
#285=EDGE_CURVE('',#236,#235,#120,.T.);
#286=EDGE_CURVE('',#233,#236,#121,.T.);
#287=EDGE_CURVE('',#237,#236,#122,.T.);
#288=EDGE_CURVE('',#235,#238,#123,.T.);
#289=EDGE_CURVE('',#238,#237,#124,.T.);
#290=EDGE_CURVE('',#239,#234,#125,.T.);
#291=EDGE_CURVE('',#240,#239,#126,.T.);
#292=EDGE_CURVE('',#238,#240,#127,.T.);
#293=EDGE_CURVE('',#241,#240,#128,.T.);
#294=EDGE_CURVE('',#237,#241,#129,.T.);
#295=EDGE_CURVE('',#242,#243,#130,.T.);
#296=EDGE_CURVE('',#243,#244,#131,.T.);
#297=EDGE_CURVE('',#244,#245,#132,.T.);
#298=EDGE_CURVE('',#245,#242,#133,.T.);
#299=EDGE_CURVE('',#244,#228,#134,.T.);
#300=EDGE_CURVE('',#245,#227,#135,.T.);
#301=EDGE_CURVE('',#246,#226,#136,.T.);
#302=EDGE_CURVE('',#242,#246,#137,.T.);
#303=EDGE_CURVE('',#246,#247,#138,.T.);
#304=EDGE_CURVE('',#247,#243,#139,.T.);
#305=EDGE_CURVE('',#223,#247,#140,.T.);
#306=EDGE_CURVE('',#232,#241,#141,.T.);
#307=EDGE_CURVE('',#239,#217,#142,.T.);
#308=EDGE_CURVE('',#234,#246,#143,.T.);
#309=EDGE_CURVE('',#233,#224,#144,.T.);
#310=ORIENTED_EDGE('',*,*,#248,.F.);
#311=ORIENTED_EDGE('',*,*,#249,.T.);
#312=ORIENTED_EDGE('',*,*,#250,.F.);
#313=ORIENTED_EDGE('',*,*,#249,.F.);
#314=ORIENTED_EDGE('',*,*,#251,.F.);
#315=ORIENTED_EDGE('',*,*,#252,.T.);
#316=ORIENTED_EDGE('',*,*,#253,.F.);
#317=ORIENTED_EDGE('',*,*,#252,.F.);
#318=ORIENTED_EDGE('',*,*,#254,.F.);
#319=ORIENTED_EDGE('',*,*,#255,.T.);
#320=ORIENTED_EDGE('',*,*,#255,.F.);
#321=ORIENTED_EDGE('',*,*,#256,.F.);
#322=ORIENTED_EDGE('',*,*,#257,.T.);
#323=ORIENTED_EDGE('',*,*,#254,.T.);
#324=ORIENTED_EDGE('',*,*,#257,.F.);
#325=ORIENTED_EDGE('',*,*,#258,.F.);
#326=ORIENTED_EDGE('',*,*,#259,.F.);
#327=ORIENTED_EDGE('',*,*,#260,.F.);
#328=ORIENTED_EDGE('',*,*,#261,.F.);
#329=ORIENTED_EDGE('',*,*,#262,.F.);
#330=ORIENTED_EDGE('',*,*,#263,.F.);
#331=ORIENTED_EDGE('',*,*,#264,.F.);
#332=ORIENTED_EDGE('',*,*,#265,.F.);
#333=ORIENTED_EDGE('',*,*,#265,.T.);
#334=ORIENTED_EDGE('',*,*,#266,.F.);
#335=ORIENTED_EDGE('',*,*,#267,.F.);
#336=ORIENTED_EDGE('',*,*,#268,.F.);
#337=ORIENTED_EDGE('',*,*,#269,.T.);
#338=ORIENTED_EDGE('',*,*,#270,.F.);
#339=ORIENTED_EDGE('',*,*,#256,.T.);
#340=ORIENTED_EDGE('',*,*,#262,.T.);
#341=ORIENTED_EDGE('',*,*,#271,.T.);
#342=ORIENTED_EDGE('',*,*,#272,.T.);
#343=ORIENTED_EDGE('',*,*,#273,.T.);
#344=ORIENTED_EDGE('',*,*,#274,.T.);
#345=ORIENTED_EDGE('',*,*,#275,.T.);
#346=ORIENTED_EDGE('',*,*,#264,.T.);
#347=ORIENTED_EDGE('',*,*,#276,.T.);
#348=ORIENTED_EDGE('',*,*,#277,.T.);
#349=ORIENTED_EDGE('',*,*,#266,.T.);
#350=ORIENTED_EDGE('',*,*,#258,.T.);
#351=ORIENTED_EDGE('',*,*,#270,.T.);
#352=ORIENTED_EDGE('',*,*,#278,.T.);
#353=ORIENTED_EDGE('',*,*,#279,.T.);
#354=ORIENTED_EDGE('',*,*,#263,.T.);
#355=ORIENTED_EDGE('',*,*,#275,.F.);
#356=ORIENTED_EDGE('',*,*,#280,.T.);
#357=ORIENTED_EDGE('',*,*,#276,.F.);
#358=ORIENTED_EDGE('',*,*,#259,.T.);
#359=ORIENTED_EDGE('',*,*,#279,.F.);
#360=ORIENTED_EDGE('',*,*,#281,.F.);
#361=ORIENTED_EDGE('',*,*,#282,.F.);
#362=ORIENTED_EDGE('',*,*,#283,.T.);
#363=ORIENTED_EDGE('',*,*,#284,.F.);
#364=ORIENTED_EDGE('',*,*,#285,.F.);
#365=ORIENTED_EDGE('',*,*,#286,.F.);
#366=ORIENTED_EDGE('',*,*,#287,.T.);
#367=ORIENTED_EDGE('',*,*,#285,.T.);
#368=ORIENTED_EDGE('',*,*,#288,.T.);
#369=ORIENTED_EDGE('',*,*,#289,.T.);
#370=ORIENTED_EDGE('',*,*,#284,.T.);
#371=ORIENTED_EDGE('',*,*,#290,.F.);
#372=ORIENTED_EDGE('',*,*,#291,.F.);
#373=ORIENTED_EDGE('',*,*,#292,.F.);
#374=ORIENTED_EDGE('',*,*,#288,.F.);
#375=ORIENTED_EDGE('',*,*,#292,.T.);
#376=ORIENTED_EDGE('',*,*,#293,.F.);
#377=ORIENTED_EDGE('',*,*,#294,.F.);
#378=ORIENTED_EDGE('',*,*,#289,.F.);
#379=ORIENTED_EDGE('',*,*,#295,.T.);
#380=ORIENTED_EDGE('',*,*,#296,.T.);
#381=ORIENTED_EDGE('',*,*,#297,.T.);
#382=ORIENTED_EDGE('',*,*,#298,.T.);
#383=ORIENTED_EDGE('',*,*,#299,.T.);
#384=ORIENTED_EDGE('',*,*,#273,.F.);
#385=ORIENTED_EDGE('',*,*,#300,.F.);
#386=ORIENTED_EDGE('',*,*,#297,.F.);
#387=ORIENTED_EDGE('',*,*,#300,.T.);
#388=ORIENTED_EDGE('',*,*,#272,.F.);
#389=ORIENTED_EDGE('',*,*,#301,.F.);
#390=ORIENTED_EDGE('',*,*,#302,.F.);
#391=ORIENTED_EDGE('',*,*,#298,.F.);
#392=ORIENTED_EDGE('',*,*,#250,.T.);
#393=ORIENTED_EDGE('',*,*,#253,.T.);
#394=ORIENTED_EDGE('',*,*,#303,.T.);
#395=ORIENTED_EDGE('',*,*,#304,.T.);
#396=ORIENTED_EDGE('',*,*,#295,.F.);
#397=ORIENTED_EDGE('',*,*,#302,.T.);
#398=ORIENTED_EDGE('',*,*,#274,.F.);
#399=ORIENTED_EDGE('',*,*,#299,.F.);
#400=ORIENTED_EDGE('',*,*,#296,.F.);
#401=ORIENTED_EDGE('',*,*,#304,.F.);
#402=ORIENTED_EDGE('',*,*,#305,.F.);
#403=ORIENTED_EDGE('',*,*,#267,.T.);
#404=ORIENTED_EDGE('',*,*,#277,.F.);
#405=ORIENTED_EDGE('',*,*,#280,.F.);
#406=ORIENTED_EDGE('',*,*,#248,.T.);
#407=ORIENTED_EDGE('',*,*,#251,.T.);
#408=ORIENTED_EDGE('',*,*,#260,.T.);
#409=ORIENTED_EDGE('',*,*,#282,.T.);
#410=ORIENTED_EDGE('',*,*,#306,.T.);
#411=ORIENTED_EDGE('',*,*,#293,.T.);
#412=ORIENTED_EDGE('',*,*,#291,.T.);
#413=ORIENTED_EDGE('',*,*,#307,.T.);
#414=ORIENTED_EDGE('',*,*,#261,.T.);
#415=ORIENTED_EDGE('',*,*,#307,.F.);
#416=ORIENTED_EDGE('',*,*,#290,.T.);
#417=ORIENTED_EDGE('',*,*,#308,.T.);
#418=ORIENTED_EDGE('',*,*,#301,.T.);
#419=ORIENTED_EDGE('',*,*,#271,.F.);
#420=ORIENTED_EDGE('',*,*,#309,.F.);
#421=ORIENTED_EDGE('',*,*,#286,.T.);
#422=ORIENTED_EDGE('',*,*,#287,.F.);
#423=ORIENTED_EDGE('',*,*,#294,.T.);
#424=ORIENTED_EDGE('',*,*,#306,.F.);
#425=ORIENTED_EDGE('',*,*,#281,.T.);
#426=ORIENTED_EDGE('',*,*,#278,.F.);
#427=ORIENTED_EDGE('',*,*,#269,.F.);
#428=ORIENTED_EDGE('',*,*,#305,.T.);
#429=ORIENTED_EDGE('',*,*,#303,.F.);
#430=ORIENTED_EDGE('',*,*,#308,.F.);
#431=ORIENTED_EDGE('',*,*,#283,.F.);
#432=ORIENTED_EDGE('',*,*,#309,.T.);
#433=ORIENTED_EDGE('',*,*,#268,.T.);
#434=CYLINDRICAL_SURFACE('',#485,1.03775);
#435=CYLINDRICAL_SURFACE('',#488,1.03775);
#436=CYLINDRICAL_SURFACE('',#493,1.03775);
#437=CYLINDRICAL_SURFACE('',#495,3.);
#438=ADVANCED_FACE('',(#40),#434,.F.);
#439=ADVANCED_FACE('',(#41),#435,.F.);
#440=ADVANCED_FACE('',(#42),#39,.F.);
#441=ADVANCED_FACE('',(#43),#436,.F.);
#442=ADVANCED_FACE('',(#44),#437,.F.);
#443=ADVANCED_FACE('',(#45,#15),#20,.T.);
#444=ADVANCED_FACE('',(#46),#21,.T.);
#445=ADVANCED_FACE('',(#47),#22,.T.);
#446=ADVANCED_FACE('',(#48),#23,.T.);
#447=ADVANCED_FACE('',(#49),#24,.T.);
#448=ADVANCED_FACE('',(#50),#25,.T.);
#449=ADVANCED_FACE('',(#51),#26,.T.);
#450=ADVANCED_FACE('',(#52),#27,.T.);
#451=ADVANCED_FACE('',(#53),#28,.T.);
#452=ADVANCED_FACE('',(#54),#29,.T.);
#453=ADVANCED_FACE('',(#55),#30,.T.);
#454=ADVANCED_FACE('',(#56),#31,.T.);
#455=ADVANCED_FACE('',(#57,#16,#17),#32,.T.);
#456=ADVANCED_FACE('',(#58),#33,.T.);
#457=ADVANCED_FACE('',(#59,#18,#19),#34,.T.);
#458=ADVANCED_FACE('',(#60),#35,.T.);
#459=ADVANCED_FACE('',(#61),#36,.T.);
#460=ADVANCED_FACE('',(#62),#37,.T.);
#461=ADVANCED_FACE('',(#63),#38,.F.);
#462=CLOSED_SHELL('',(#438,#439,#440,#441,#442,#443,#444,#445,#446,#447,
#448,#449,#450,#451,#452,#453,#454,#455,#456,#457,#458,#459,#460,#461));
#463=DERIVED_UNIT_ELEMENT(#466,1.);
#464=DERIVED_UNIT_ELEMENT(#774,-3.);
#465=DIMENSIONAL_EXPONENTS(0.,1.,0.,0.,0.,0.,0.);
#466=(
CONVERSION_BASED_UNIT('gram',#468)
MASS_UNIT()
NAMED_UNIT(#465)
);
#467=(
MASS_UNIT()
NAMED_UNIT(*)
SI_UNIT(.KILO.,.GRAM.)
);
#468=MASS_MEASURE_WITH_UNIT(MASS_MEASURE(0.001),#467);
#469=DERIVED_UNIT((#463,#464));
#470=MEASURE_REPRESENTATION_ITEM('density measure',
POSITIVE_RATIO_MEASURE(2.7),#469);
#471=PROPERTY_DEFINITION_REPRESENTATION(#476,#473);
#472=PROPERTY_DEFINITION_REPRESENTATION(#477,#474);
#473=REPRESENTATION('material name',(#475),#771);
#474=REPRESENTATION('density',(#470),#771);
#475=DESCRIPTIVE_REPRESENTATION_ITEM('Aluminum 6061','Aluminum 6061');
#476=PROPERTY_DEFINITION('material property','material name',#781);
#477=PROPERTY_DEFINITION('material property','density of part',#781);
#478=DATE_TIME_ROLE('creation_date');
#479=APPLIED_DATE_AND_TIME_ASSIGNMENT(#480,#478,(#781));
#480=DATE_AND_TIME(#481,#482);
#481=CALENDAR_DATE(2026,29,4);
#482=LOCAL_TIME(0,0,0.,#483);
#483=COORDINATED_UNIVERSAL_TIME_OFFSET(0,0,.BEHIND.);
#484=AXIS2_PLACEMENT_3D('',#641,#519,#520);
#485=AXIS2_PLACEMENT_3D('',#642,#521,#522);
#486=AXIS2_PLACEMENT_3D('',#644,#523,#524);
#487=AXIS2_PLACEMENT_3D('',#647,#526,#527);
#488=AXIS2_PLACEMENT_3D('',#648,#528,#529);
#489=AXIS2_PLACEMENT_3D('',#650,#530,#531);
#490=AXIS2_PLACEMENT_3D('',#653,#533,#534);
#491=AXIS2_PLACEMENT_3D('',#654,#535,#536);
#492=AXIS2_PLACEMENT_3D('',#656,#537,#538);
#493=AXIS2_PLACEMENT_3D('',#659,#540,#541);
#494=AXIS2_PLACEMENT_3D('',#661,#542,#543);
#495=AXIS2_PLACEMENT_3D('',#663,#545,#546);
#496=AXIS2_PLACEMENT_3D('',#668,#548,#549);
#497=AXIS2_PLACEMENT_3D('',#672,#551,#552);
#498=AXIS2_PLACEMENT_3D('',#676,#554,#555);
#499=AXIS2_PLACEMENT_3D('',#679,#557,#558);
#500=AXIS2_PLACEMENT_3D('',#680,#559,#560);
#501=AXIS2_PLACEMENT_3D('',#690,#566,#567);
#502=AXIS2_PLACEMENT_3D('',#700,#573,#574);
#503=AXIS2_PLACEMENT_3D('',#704,#577,#578);
#504=AXIS2_PLACEMENT_3D('',#708,#581,#582);
#505=AXIS2_PLACEMENT_3D('',#710,#584,#585);
#506=AXIS2_PLACEMENT_3D('',#714,#588,#589);
#507=AXIS2_PLACEMENT_3D('',#723,#594,#595);
#508=AXIS2_PLACEMENT_3D('',#729,#599,#600);
#509=AXIS2_PLACEMENT_3D('',#735,#604,#605);
#510=AXIS2_PLACEMENT_3D('',#739,#608,#609);
#511=AXIS2_PLACEMENT_3D('',#748,#614,#615);
#512=AXIS2_PLACEMENT_3D('',#751,#618,#619);
#513=AXIS2_PLACEMENT_3D('',#755,#622,#623);
#514=AXIS2_PLACEMENT_3D('',#759,#626,#627);
#515=AXIS2_PLACEMENT_3D('',#761,#629,#630);
#516=AXIS2_PLACEMENT_3D('',#764,#633,#634);
#517=AXIS2_PLACEMENT_3D('',#766,#636,#637);
#518=AXIS2_PLACEMENT_3D('',#768,#639,#640);
#519=DIRECTION('axis',(0.,0.,1.));
#520=DIRECTION('refdir',(1.,0.,0.));
#521=DIRECTION('center_axis',(-1.,0.,0.));
#522=DIRECTION('ref_axis',(0.,1.,0.));
#523=DIRECTION('center_axis',(-1.,0.,0.));
#524=DIRECTION('ref_axis',(0.,1.,0.));
#525=DIRECTION('',(-1.,0.,0.));
#526=DIRECTION('center_axis',(1.,0.,0.));
#527=DIRECTION('ref_axis',(0.,1.,0.));
#528=DIRECTION('center_axis',(-1.,0.,0.));
#529=DIRECTION('ref_axis',(0.,1.,0.));
#530=DIRECTION('center_axis',(-1.,0.,0.));
#531=DIRECTION('ref_axis',(0.,1.,0.));
#532=DIRECTION('',(-1.,0.,0.));
#533=DIRECTION('center_axis',(1.,0.,0.));
#534=DIRECTION('ref_axis',(0.,1.,0.));
#535=DIRECTION('center_axis',(0.,1.,0.));
#536=DIRECTION('ref_axis',(0.,0.,1.));
#537=DIRECTION('center_axis',(0.,-1.,0.));
#538=DIRECTION('ref_axis',(0.,0.,1.));
#539=DIRECTION('',(-1.04972719113862E-16,-0.515038074910054,0.857167300702112));
#540=DIRECTION('center_axis',(0.,-1.,0.));
#541=DIRECTION('ref_axis',(0.,0.,1.));
#542=DIRECTION('center_axis',(0.,-1.,0.));
#543=DIRECTION('ref_axis',(0.,0.,1.));
#544=DIRECTION('',(0.,-1.,0.));
#545=DIRECTION('center_axis',(0.,-1.,0.));
#546=DIRECTION('ref_axis',(-1.22464679914735E-16,0.,-1.));
#547=DIRECTION('',(0.,1.,0.));
#548=DIRECTION('center_axis',(0.,1.,0.));
#549=DIRECTION('ref_axis',(0.,0.,1.));
#550=DIRECTION('',(0.,1.,0.));
#551=DIRECTION('center_axis',(0.,1.,0.));
#552=DIRECTION('ref_axis',(0.,0.,1.));
#553=DIRECTION('',(0.,-1.,0.));
#554=DIRECTION('center_axis',(0.,1.,0.));
#555=DIRECTION('ref_axis',(0.,0.,1.));
#556=DIRECTION('',(0.,-1.,0.));
#557=DIRECTION('center_axis',(0.,-1.,0.));
#558=DIRECTION('ref_axis',(0.,0.,1.));
#559=DIRECTION('center_axis',(0.,1.,0.));
#560=DIRECTION('ref_axis',(-1.,0.,0.));
#561=DIRECTION('',(-1.,0.,0.));
#562=DIRECTION('',(0.,0.,1.));
#563=DIRECTION('',(1.,0.,0.));
#564=DIRECTION('',(0.,0.,1.));
#565=DIRECTION('',(-1.,0.,0.));
#566=DIRECTION('center_axis',(0.,0.,1.));
#567=DIRECTION('ref_axis',(1.,0.,0.));
#568=DIRECTION('',(1.,0.,0.));
#569=DIRECTION('',(0.,-1.,0.));
#570=DIRECTION('',(1.,0.,0.));
#571=DIRECTION('',(0.,1.,0.));
#572=DIRECTION('',(-1.,0.,0.));
#573=DIRECTION('center_axis',(0.,0.,1.));
#574=DIRECTION('ref_axis',(1.,0.,0.));
#575=DIRECTION('',(1.,0.,0.));
#576=DIRECTION('',(0.,1.,0.));
#577=DIRECTION('center_axis',(0.,0.,1.));
#578=DIRECTION('ref_axis',(1.,0.,0.));
#579=DIRECTION('',(0.,-1.,0.));
#580=DIRECTION('',(1.,0.,0.));
#581=DIRECTION('center_axis',(0.,-1.,0.));
#582=DIRECTION('ref_axis',(1.,0.,0.));
#583=DIRECTION('',(0.,0.,1.));
#584=DIRECTION('center_axis',(0.,-1.,0.));
#585=DIRECTION('ref_axis',(1.,0.,0.));
#586=DIRECTION('',(0.,0.,1.));
#587=DIRECTION('',(-1.,0.,0.));
#588=DIRECTION('center_axis',(0.,1.,0.));
#589=DIRECTION('ref_axis',(-1.,0.,0.));
#590=DIRECTION('',(1.,0.,0.));
#591=DIRECTION('',(0.,0.,1.));
#592=DIRECTION('',(1.,0.,0.));
#593=DIRECTION('',(0.,0.,-1.));
#594=DIRECTION('center_axis',(0.,0.,-1.));
#595=DIRECTION('ref_axis',(-1.,0.,0.));
#596=DIRECTION('',(0.,1.,0.));
#597=DIRECTION('',(0.,-1.,0.));
#598=DIRECTION('',(-1.,0.,0.));
#599=DIRECTION('center_axis',(1.,0.,0.));
#600=DIRECTION('ref_axis',(0.,1.,0.));
#601=DIRECTION('',(0.,0.,-1.));
#602=DIRECTION('',(0.,1.,0.));
#603=DIRECTION('',(0.,0.,1.));
#604=DIRECTION('center_axis',(0.,-1.,0.));
#605=DIRECTION('ref_axis',(1.,0.,0.));
#606=DIRECTION('',(1.,0.,0.));
#607=DIRECTION('',(0.,0.,1.));
#608=DIRECTION('center_axis',(0.,0.,-1.));
#609=DIRECTION('ref_axis',(-1.,0.,0.));
#610=DIRECTION('',(1.,0.,0.));
#611=DIRECTION('',(0.,-1.,0.));
#612=DIRECTION('',(-1.,0.,0.));
#613=DIRECTION('',(0.,1.,0.));
#614=DIRECTION('center_axis',(0.,-1.,0.));
#615=DIRECTION('ref_axis',(1.,0.,0.));
#616=DIRECTION('',(0.,0.,1.));
#617=DIRECTION('',(0.,0.,1.));
#618=DIRECTION('center_axis',(-1.,0.,0.));
#619=DIRECTION('ref_axis',(0.,-1.,0.));
#620=DIRECTION('',(0.,0.,1.));
#621=DIRECTION('',(0.,0.,1.));
#622=DIRECTION('center_axis',(0.,1.,0.));
#623=DIRECTION('ref_axis',(-1.,0.,0.));
#624=DIRECTION('',(1.,0.,0.));
#625=DIRECTION('',(0.,0.,-1.));
#626=DIRECTION('center_axis',(1.,0.,0.));
#627=DIRECTION('ref_axis',(0.,1.,0.));
#628=DIRECTION('',(0.,-1.,0.));
#629=DIRECTION('center_axis',(0.,0.,1.));
#630=DIRECTION('ref_axis',(1.,0.,0.));
#631=DIRECTION('',(0.,-1.,0.));
#632=DIRECTION('',(1.,0.,0.));
#633=DIRECTION('center_axis',(0.,-1.,0.));
#634=DIRECTION('ref_axis',(1.,0.,0.));
#635=DIRECTION('',(1.,0.,0.));
#636=DIRECTION('center_axis',(-1.,0.,0.));
#637=DIRECTION('ref_axis',(0.,-1.,0.));
#638=DIRECTION('',(0.,1.,0.));
#639=DIRECTION('center_axis',(0.,0.,1.));
#640=DIRECTION('ref_axis',(1.,0.,0.));
#641=CARTESIAN_POINT('',(0.,0.,0.));
#642=CARTESIAN_POINT('Origin',(12.85,-16.3,1.425));
#643=CARTESIAN_POINT('',(14.6,-17.33775,1.425));
#644=CARTESIAN_POINT('Origin',(14.6,-16.3,1.425));
#645=CARTESIAN_POINT('',(11.5,-17.33775,1.425));
#646=CARTESIAN_POINT('',(12.85,-17.33775,1.425));
#647=CARTESIAN_POINT('Origin',(11.5,-16.3,1.425));
#648=CARTESIAN_POINT('Origin',(12.85,-11.2,1.425));
#649=CARTESIAN_POINT('',(14.6,-12.23775,1.425));
#650=CARTESIAN_POINT('Origin',(14.6,-11.2,1.425));
#651=CARTESIAN_POINT('',(11.5,-12.23775,1.425));
#652=CARTESIAN_POINT('',(12.85,-12.23775,1.425));
#653=CARTESIAN_POINT('Origin',(11.5,-11.2,1.425));
#654=CARTESIAN_POINT('Origin',(7.3,-3.8117362928262,1.7));
#655=CARTESIAN_POINT('',(7.3,-3.5,0.662249999999999));
#656=CARTESIAN_POINT('Origin',(7.3,-3.5,1.7));
#657=CARTESIAN_POINT('',(7.3,-4.12354310739585,1.7));
#658=CARTESIAN_POINT('',(7.3,-3.8117362928262,1.18106631605465));
#659=CARTESIAN_POINT('Origin',(7.3,-1.75,1.7));
#660=CARTESIAN_POINT('',(7.3,0.,0.662249999999999));
#661=CARTESIAN_POINT('Origin',(7.3,0.,1.7));
#662=CARTESIAN_POINT('',(7.3,-1.75,0.662249999999999));
#663=CARTESIAN_POINT('Origin',(7.3,-5.25,6.4));
#664=CARTESIAN_POINT('',(4.47157287525381,-4.15,5.4));
#665=CARTESIAN_POINT('',(4.47157287525381,0.,5.4));
#666=CARTESIAN_POINT('',(4.47157287525381,-5.25,5.4));
#667=CARTESIAN_POINT('',(5.71965193707209,-4.15,3.85));
#668=CARTESIAN_POINT('Origin',(7.3,-4.15,6.4));
#669=CARTESIAN_POINT('',(5.71965193707209,-6.1,3.85));
#670=CARTESIAN_POINT('',(5.71965193707209,-5.25,3.85));
#671=CARTESIAN_POINT('',(8.88034806292791,-6.1,3.85));
#672=CARTESIAN_POINT('Origin',(7.3,-6.1,6.4));
#673=CARTESIAN_POINT('',(8.88034806292791,-4.15,3.85));
#674=CARTESIAN_POINT('',(8.88034806292791,-5.25,3.85));
#675=CARTESIAN_POINT('',(10.1284271247462,-4.15,5.4));
#676=CARTESIAN_POINT('Origin',(7.3,-4.15,6.4));
#677=CARTESIAN_POINT('',(10.1284271247462,0.,5.4));
#678=CARTESIAN_POINT('',(10.1284271247462,-5.25,5.4));
#679=CARTESIAN_POINT('Origin',(7.3,0.,6.4));
#680=CARTESIAN_POINT('Origin',(14.6,0.,0.));
#681=CARTESIAN_POINT('',(14.6,0.,5.4));
#682=CARTESIAN_POINT('',(0.,0.,5.4));
#683=CARTESIAN_POINT('',(14.6,0.,0.));
#684=CARTESIAN_POINT('',(14.6,0.,0.));
#685=CARTESIAN_POINT('',(0.,0.,0.));
#686=CARTESIAN_POINT('',(0.,0.,0.));
#687=CARTESIAN_POINT('',(0.,0.,5.4));
#688=CARTESIAN_POINT('',(0.,0.,0.));
#689=CARTESIAN_POINT('',(0.,0.,5.4));
#690=CARTESIAN_POINT('Origin',(7.3,-3.05,3.85));
#691=CARTESIAN_POINT('',(11.5,-6.1,3.85));
#692=CARTESIAN_POINT('',(0.,-6.1,3.85));
#693=CARTESIAN_POINT('',(11.5,-21.4,3.85));
#694=CARTESIAN_POINT('',(11.5,-6.1,3.85));
#695=CARTESIAN_POINT('',(14.6,-21.4,3.85));
#696=CARTESIAN_POINT('',(14.6,-21.4,3.85));
#697=CARTESIAN_POINT('',(14.6,-4.15,3.85));
#698=CARTESIAN_POINT('',(14.6,0.,3.85));
#699=CARTESIAN_POINT('',(3.65,-4.15,3.85));
#700=CARTESIAN_POINT('Origin',(7.3,-2.075,5.4));
#701=CARTESIAN_POINT('',(14.6,-4.15,5.4));
#702=CARTESIAN_POINT('',(0.,-4.15,5.4));
#703=CARTESIAN_POINT('',(14.6,0.,5.4));
#704=CARTESIAN_POINT('Origin',(7.3,-2.075,5.4));
#705=CARTESIAN_POINT('',(0.,-4.15,5.4));
#706=CARTESIAN_POINT('',(0.,-6.1,5.4));
#707=CARTESIAN_POINT('',(0.,-4.15,5.4));
#708=CARTESIAN_POINT('Origin',(0.,-4.15,0.));
#709=CARTESIAN_POINT('',(14.6,-4.15,0.));
#710=CARTESIAN_POINT('Origin',(0.,-4.15,0.));
#711=CARTESIAN_POINT('',(0.,-4.15,3.85));
#712=CARTESIAN_POINT('',(0.,-4.15,0.));
#713=CARTESIAN_POINT('',(3.65,-4.15,3.85));
#714=CARTESIAN_POINT('Origin',(3.1,-6.1,0.));
#715=CARTESIAN_POINT('',(0.,-6.1,0.));
#716=CARTESIAN_POINT('',(3.1,-6.1,0.));
#717=CARTESIAN_POINT('',(0.,-6.1,0.));
#718=CARTESIAN_POINT('',(3.1,-6.1,-1.));
#719=CARTESIAN_POINT('',(3.1,-6.1,0.));
#720=CARTESIAN_POINT('',(0.,-6.1,-1.));
#721=CARTESIAN_POINT('',(0.,-6.1,-1.));
#722=CARTESIAN_POINT('',(0.,-6.1,0.));
#723=CARTESIAN_POINT('Origin',(1.55,-13.75,-1.));
#724=CARTESIAN_POINT('',(0.,-21.4,-1.));
#725=CARTESIAN_POINT('',(0.,-21.4,-1.));
#726=CARTESIAN_POINT('',(3.1,-21.4,-1.));
#727=CARTESIAN_POINT('',(3.1,-6.1,-1.));
#728=CARTESIAN_POINT('',(14.6,-21.4,-1.));
#729=CARTESIAN_POINT('Origin',(3.1,-21.4,0.));
#730=CARTESIAN_POINT('',(3.1,-6.1,3.85));
#731=CARTESIAN_POINT('',(3.1,-6.1,0.));
#732=CARTESIAN_POINT('',(3.1,-21.4,3.85));
#733=CARTESIAN_POINT('',(3.1,-6.1,3.85));
#734=CARTESIAN_POINT('',(3.1,-21.4,0.));
#735=CARTESIAN_POINT('Origin',(0.,-21.4,0.));
#736=CARTESIAN_POINT('',(0.,-21.4,3.85));
#737=CARTESIAN_POINT('',(14.6,-21.4,3.85));
#738=CARTESIAN_POINT('',(0.,-21.4,0.));
#739=CARTESIAN_POINT('Origin',(13.05,-13.75,-1.));
#740=CARTESIAN_POINT('',(11.5,-6.1,-1.));
#741=CARTESIAN_POINT('',(14.6,-6.1,-1.));
#742=CARTESIAN_POINT('',(0.,-6.1,-1.));
#743=CARTESIAN_POINT('',(14.6,-21.4,-1.));
#744=CARTESIAN_POINT('',(14.6,0.,-1.));
#745=CARTESIAN_POINT('',(11.5,-21.4,-1.));
#746=CARTESIAN_POINT('',(14.6,-21.4,-1.));
#747=CARTESIAN_POINT('',(11.5,-6.1,-1.));
#748=CARTESIAN_POINT('Origin',(11.5,-21.4,0.));
#749=CARTESIAN_POINT('',(14.6,-21.4,0.));
#750=CARTESIAN_POINT('',(11.5,-21.4,0.));
#751=CARTESIAN_POINT('Origin',(11.5,-6.1,0.));
#752=CARTESIAN_POINT('',(11.5,-6.1,0.));
#753=CARTESIAN_POINT('',(11.5,-6.1,0.));
#754=CARTESIAN_POINT('',(11.5,-6.1,0.));
#755=CARTESIAN_POINT('Origin',(14.6,-6.1,0.));
#756=CARTESIAN_POINT('',(14.6,-6.1,0.));
#757=CARTESIAN_POINT('',(0.,-6.1,0.));
#758=CARTESIAN_POINT('',(14.6,-6.1,0.));
#759=CARTESIAN_POINT('Origin',(14.6,-6.1,0.));
#760=CARTESIAN_POINT('',(14.6,0.,0.));
#761=CARTESIAN_POINT('Origin',(7.3,-3.05,3.85));
#762=CARTESIAN_POINT('',(0.,-6.1,3.85));
#763=CARTESIAN_POINT('',(0.,-6.1,3.85));
#764=CARTESIAN_POINT('Origin',(0.,-6.1,0.));
#765=CARTESIAN_POINT('',(0.,-6.1,0.));
#766=CARTESIAN_POINT('Origin',(0.,0.,0.));
#767=CARTESIAN_POINT('',(0.,-6.1,0.));
#768=CARTESIAN_POINT('Origin',(7.3,-3.05,0.));
#769=UNCERTAINTY_MEASURE_WITH_UNIT(LENGTH_MEASURE(0.01),#773,
'DISTANCE_ACCURACY_VALUE',
'Maximum model space distance between geometric entities at asserted c
onnectivities');
#770=UNCERTAINTY_MEASURE_WITH_UNIT(LENGTH_MEASURE(0.01),#773,
'DISTANCE_ACCURACY_VALUE',
'Maximum model space distance between geometric entities at asserted c
onnectivities');
#771=(
GEOMETRIC_REPRESENTATION_CONTEXT(3)
GLOBAL_UNCERTAINTY_ASSIGNED_CONTEXT((#769))
GLOBAL_UNIT_ASSIGNED_CONTEXT((#773,#775,#776))
REPRESENTATION_CONTEXT('','3D')
);
#772=(
GEOMETRIC_REPRESENTATION_CONTEXT(3)
GLOBAL_UNCERTAINTY_ASSIGNED_CONTEXT((#770))
GLOBAL_UNIT_ASSIGNED_CONTEXT((#773,#775,#776))
REPRESENTATION_CONTEXT('','3D')
);
#773=(
LENGTH_UNIT()
NAMED_UNIT(*)
SI_UNIT(.MILLI.,.METRE.)
);
#774=(
LENGTH_UNIT()
NAMED_UNIT(*)
SI_UNIT(.CENTI.,.METRE.)
);
#775=(
NAMED_UNIT(*)
PLANE_ANGLE_UNIT()
SI_UNIT($,.RADIAN.)
);
#776=(
NAMED_UNIT(*)
SI_UNIT($,.STERADIAN.)
SOLID_ANGLE_UNIT()
);
#777=SHAPE_DEFINITION_REPRESENTATION(#778,#779);
#778=PRODUCT_DEFINITION_SHAPE('',$,#781);
#779=SHAPE_REPRESENTATION('',(#484),#771);
#780=PRODUCT_DEFINITION_CONTEXT('part definition',#785,'design');
#781=PRODUCT_DEFINITION('NT_NCS_002_P_001','CamNT_probe_holder',#782,#780);
#782=PRODUCT_DEFINITION_FORMATION('',$,#787);
#783=PRODUCT_RELATED_PRODUCT_CATEGORY('CamNT_probe_holder',
'CamNT_probe_holder',(#787));
#784=APPLICATION_PROTOCOL_DEFINITION('international standard',
'automotive_design',2009,#785);
#785=APPLICATION_CONTEXT(
'Core Data for Automotive Mechanical Design Process');
#786=PRODUCT_CONTEXT('part definition',#785,'mechanical');
#787=PRODUCT('NT_NCS_002_P_001','CamNT_probe_holder','Tuning fork',(#786));
#788=PRESENTATION_STYLE_ASSIGNMENT((#790));
#789=PRESENTATION_STYLE_ASSIGNMENT((#791));
#790=SURFACE_STYLE_USAGE(.BOTH.,#796);
#791=SURFACE_STYLE_USAGE(.BOTH.,#797);
#792=SURFACE_STYLE_RENDERING_WITH_PROPERTIES($,#804,(#794));
#793=SURFACE_STYLE_RENDERING_WITH_PROPERTIES($,#805,(#795));
#794=SURFACE_STYLE_TRANSPARENT(0.);
#795=SURFACE_STYLE_TRANSPARENT(0.);
#796=SURFACE_SIDE_STYLE('',(#798,#792));
#797=SURFACE_SIDE_STYLE('',(#799,#793));
#798=SURFACE_STYLE_FILL_AREA(#800);
#799=SURFACE_STYLE_FILL_AREA(#801);
#800=FILL_AREA_STYLE('',(#802));
#801=FILL_AREA_STYLE('',(#803));
#802=FILL_AREA_STYLE_COLOUR('',#804);
#803=FILL_AREA_STYLE_COLOUR('',#805);
#804=COLOUR_RGB('',0.996078431372549,0.996078431372549,1.);
#805=COLOUR_RGB('',0.96078431372549,0.96078431372549,0.964705882352941);
ENDSEC;
END-ISO-10303-21;
